<?xml version="1.0" encoding="UTF-8"?>
<!-- Generator: Adobe Illustrator 28.0.0, SVG Export Plug-In . SVG Version: 6.00 Build 0)  -->
<svg xmlns="http://www.w3.org/2000/svg" xmlns:xlink="http://www.w3.org/1999/xlink" version="1.1" id="Layer_1" x="0px" y="0px" viewBox="0 0 304.1 106.2" style="enable-background:new 0 0 304.1 106.2;" xml:space="preserve">
<style type="text/css">
	.st0{fill:#FFFFFF;}
</style>
<g>
	<g id="Layer_2_00000093156065305112176380000000871357991147783097_">
		<g id="Layer_1-2">
			<path class="st0" d="M29.2,78.8L29.2,78.8c-2.1,0-3.8-1.7-3.8-3.8V3.8c0-2.1,1.7-3.8,3.8-3.8l0,0C31.3,0,33,1.7,33,3.8V75     C33,77.1,31.3,78.8,29.2,78.8z"></path>
			<path class="st0" d="M20.8,98.8L20.8,98.8c-2.1,0-3.8-1.7-3.8-3.8V23.8c0-2.1,1.7-3.8,3.8-3.8l0,0c2.1,0,3.8,1.7,3.8,3.8V95     C24.5,97.1,22.8,98.8,20.8,98.8z"></path>
			<path class="st0" d="M12.2,88.8L12.2,88.8c-2.1,0-3.8-1.7-3.8-3.8V13.8c0-2.1,1.7-3.8,3.8-3.8l0,0c2.1,0,3.8,1.7,3.8,3.8V85     C16,87.1,14.3,88.8,12.2,88.8z"></path>
			<path class="st0" d="M3.8,106.2L3.8,106.2c-2.1,0-3.8-1.7-3.8-3.8V31.2c0-2.1,1.7-3.8,3.8-3.8l0,0c2.1,0,3.8,1.7,3.8,3.8v71.2     C7.5,104.6,5.8,106.2,3.8,106.2z"></path>
			<g transform="translate(0, 10)">
				<path class="st0" d="M82.8,35.5h-4.9V34h11.6v1.6h-4.9v13.8h-1.9V35.5z"></path>
				<path class="st0" d="M113.2,43.2h-3.1v6.1h-1.9V34h6.2c0.9,0,1.7,0.2,2.5,0.6c0.7,0.4,1.3,0.9,1.7,1.6c0.4,0.7,0.6,1.6,0.6,2.4     c0,0.8-0.2,1.6-0.5,2.3c-0.3,0.6-0.8,1.2-1.4,1.5c-0.6,0.4-1.3,0.6-2,0.6l4.1,6.3h-2.2L113.2,43.2z M116.3,36.4     c-0.6-0.6-1.4-0.9-2.2-0.8h-4v6.1h4c0.8,0,1.6-0.3,2.2-0.9C117.5,39.6,117.5,37.6,116.3,36.4z"></path>
				<path class="st0" d="M147.9,45.9h-7.8l-1.4,3.4h-2.1l6.2-15.3h2.4l6.2,15.3h-2.1L147.9,45.9z M140.7,44.4h6.7l-3.3-8.5     L140.7,44.4z"></path>
				<path class="st0" d="M171.4,37v12.3h-1.9V34h1.9l8.8,12.1V34h1.9v15.3h-1.8L171.4,37z"></path>
				<path class="st0" d="M201.2,47.8l8.6-12.2h-8.6V34h11.1v1.6l-8.6,12.2h8.8v1.6h-11.2V47.8z"></path>
				<path class="st0" d="M241.1,45.9h-7.8l-1.3,3.4h-2.1L236,34h2.4l6.2,15.3h-2.1L241.1,45.9z M233.8,44.4h6.7l-3.3-8.5L233.8,44.4z     "></path>
				<path class="st0" d="M265.1,48.6c-1.2-0.7-2.2-1.6-2.8-2.8c-1.4-2.6-1.4-5.7,0-8.2c0.7-1.2,1.6-2.2,2.8-2.8c1.2-0.7,2.6-1,4-1     c1.2,0,2.4,0.2,3.4,0.8c1,0.5,1.8,1.2,2.5,2.2l-1.6,0.9c-1-1.4-2.6-2.3-4.4-2.2c-1.1,0-2.1,0.3-3,0.8c-0.9,0.5-1.6,1.3-2.1,2.3     c-0.5,1-0.8,2.2-0.8,3.3c0,1.2,0.3,2.3,0.9,3.3c0.5,0.9,1.2,1.7,2.1,2.3c0.9,0.6,1.9,0.8,3,0.8c0.9,0,1.7-0.2,2.5-0.6     c0.7-0.4,1.4-0.9,1.8-1.6l1.6,0.9c-1.4,1.9-3.6,3-5.9,2.9C267.7,49.7,266.3,49.3,265.1,48.6z"></path>
				<path class="st0" d="M297.3,35.5h-4.9V34h11.6v1.6h-4.9v13.8h-1.9V35.5z"></path>
			</g>
		</g>
	</g>
</g>
</svg>
